<mxfile host="app.diagrams.net" agent="Mozilla/5.0 (Windows NT 10.0; Win64; x64) AppleWebKit/537.36 (KHTML, like Gecko) Chrome/137.0.0.0 Safari/537.36 Edg/137.0.0.0" version="27.1.5">
  <diagram name="Страница — 1" id="D18LKh41Wgea9K1TwBnQ">
    <mxGraphModel dx="1657" dy="786" grid="1" gridSize="10" guides="1" tooltips="1" connect="1" arrows="1" fold="1" page="1" pageScale="1" pageWidth="827" pageHeight="1169" math="0" shadow="0">
      <root>
        <mxCell id="0" />
        <mxCell id="1" parent="0" />
        <mxCell id="nAO25f1Qk9LxeRijGTnY-1" value="" style="shape=umlLifeline;perimeter=lifelinePerimeter;whiteSpace=wrap;html=1;container=1;dropTarget=0;collapsible=0;recursiveResize=0;outlineConnect=0;portConstraint=eastwest;newEdgeStyle={&quot;curved&quot;:0,&quot;rounded&quot;:0};participant=umlActor;" parent="1" vertex="1">
          <mxGeometry x="30" y="40" width="20" height="470" as="geometry" />
        </mxCell>
        <mxCell id="nAO25f1Qk9LxeRijGTnY-3" value="найти игру&lt;br&gt;(Название)" style="html=1;verticalAlign=bottom;startArrow=oval;startFill=1;endArrow=block;startSize=8;curved=0;rounded=0;" parent="1" target="nAO25f1Qk9LxeRijGTnY-5" edge="1">
          <mxGeometry x="0.0083" y="-20" width="60" relative="1" as="geometry">
            <mxPoint x="39.5" y="140" as="sourcePoint" />
            <mxPoint x="159.5" y="140" as="targetPoint" />
            <mxPoint x="1" as="offset" />
          </mxGeometry>
        </mxCell>
        <mxCell id="nAO25f1Qk9LxeRijGTnY-7" value="найти игру&lt;br&gt;(Название)" style="html=1;verticalAlign=bottom;endArrow=block;curved=0;rounded=0;entryX=0;entryY=0;entryDx=0;entryDy=5;" parent="1" source="nAO25f1Qk9LxeRijGTnY-5" target="nAO25f1Qk9LxeRijGTnY-6" edge="1">
          <mxGeometry x="-0.0833" y="-15" relative="1" as="geometry">
            <mxPoint x="215" y="145" as="sourcePoint" />
            <mxPoint as="offset" />
          </mxGeometry>
        </mxCell>
        <mxCell id="nAO25f1Qk9LxeRijGTnY-8" value="Игра" style="html=1;verticalAlign=bottom;endArrow=open;dashed=1;endSize=8;curved=0;rounded=0;exitX=0;exitY=1;exitDx=0;exitDy=-5;" parent="1" source="nAO25f1Qk9LxeRijGTnY-6" target="nAO25f1Qk9LxeRijGTnY-5" edge="1">
          <mxGeometry relative="1" as="geometry">
            <mxPoint x="215" y="215" as="targetPoint" />
            <mxPoint as="offset" />
          </mxGeometry>
        </mxCell>
        <mxCell id="nAO25f1Qk9LxeRijGTnY-10" value="Игра" style="html=1;verticalAlign=bottom;endArrow=open;dashed=1;endSize=8;curved=0;rounded=0;exitX=0;exitY=1;exitDx=0;exitDy=-5;exitPerimeter=0;" parent="1" source="nAO25f1Qk9LxeRijGTnY-5" edge="1">
          <mxGeometry relative="1" as="geometry">
            <mxPoint x="140" y="214.5" as="sourcePoint" />
            <mxPoint x="39.5" y="215" as="targetPoint" />
          </mxGeometry>
        </mxCell>
        <mxCell id="nAO25f1Qk9LxeRijGTnY-9" value="если есть" style="shape=umlFrame;whiteSpace=wrap;html=1;pointerEvents=0;width=70;height=20;" parent="1" vertex="1">
          <mxGeometry x="30" y="160" width="280" height="70" as="geometry" />
        </mxCell>
        <mxCell id="nAO25f1Qk9LxeRijGTnY-2" value="Игры" style="shape=umlLifeline;perimeter=lifelinePerimeter;whiteSpace=wrap;html=1;container=1;dropTarget=0;collapsible=0;recursiveResize=0;outlineConnect=0;portConstraint=eastwest;newEdgeStyle={&quot;curved&quot;:0,&quot;rounded&quot;:0};" parent="1" vertex="1">
          <mxGeometry x="120" y="40" width="90" height="470" as="geometry" />
        </mxCell>
        <mxCell id="nAO25f1Qk9LxeRijGTnY-5" value="" style="html=1;points=[[0,0,0,0,5],[0,1,0,0,-5],[1,0,0,0,5],[1,1,0,0,-5]];perimeter=orthogonalPerimeter;outlineConnect=0;targetShapes=umlLifeline;portConstraint=eastwest;newEdgeStyle={&quot;curved&quot;:0,&quot;rounded&quot;:0};" parent="nAO25f1Qk9LxeRijGTnY-2" vertex="1">
          <mxGeometry x="40" y="90" width="10" height="90" as="geometry" />
        </mxCell>
        <mxCell id="nAO25f1Qk9LxeRijGTnY-12" value="" style="html=1;points=[[0,0,0,0,5],[0,1,0,0,-5],[1,0,0,0,5],[1,1,0,0,-5]];perimeter=orthogonalPerimeter;outlineConnect=0;targetShapes=umlLifeline;portConstraint=eastwest;newEdgeStyle={&quot;curved&quot;:0,&quot;rounded&quot;:0};" parent="nAO25f1Qk9LxeRijGTnY-2" vertex="1">
          <mxGeometry x="40" y="200" width="10" height="50" as="geometry" />
        </mxCell>
        <mxCell id="nAO25f1Qk9LxeRijGTnY-20" value="" style="html=1;points=[[0,0,0,0,5],[0,1,0,0,-5],[1,0,0,0,5],[1,1,0,0,-5]];perimeter=orthogonalPerimeter;outlineConnect=0;targetShapes=umlLifeline;portConstraint=eastwest;newEdgeStyle={&quot;curved&quot;:0,&quot;rounded&quot;:0};" parent="nAO25f1Qk9LxeRijGTnY-2" vertex="1">
          <mxGeometry x="40" y="355" width="10" height="70" as="geometry" />
        </mxCell>
        <mxCell id="nAO25f1Qk9LxeRijGTnY-4" value="База Игр" style="shape=umlLifeline;perimeter=lifelinePerimeter;whiteSpace=wrap;html=1;container=1;dropTarget=0;collapsible=0;recursiveResize=0;outlineConnect=0;portConstraint=eastwest;newEdgeStyle={&quot;curved&quot;:0,&quot;rounded&quot;:0};" parent="1" vertex="1">
          <mxGeometry x="240" y="40" width="100" height="470" as="geometry" />
        </mxCell>
        <mxCell id="nAO25f1Qk9LxeRijGTnY-6" value="" style="html=1;points=[[0,0,0,0,5],[0,1,0,0,-5],[1,0,0,0,5],[1,1,0,0,-5]];perimeter=orthogonalPerimeter;outlineConnect=0;targetShapes=umlLifeline;portConstraint=eastwest;newEdgeStyle={&quot;curved&quot;:0,&quot;rounded&quot;:0};" parent="nAO25f1Qk9LxeRijGTnY-4" vertex="1">
          <mxGeometry x="45" y="100" width="10" height="60" as="geometry" />
        </mxCell>
        <mxCell id="nAO25f1Qk9LxeRijGTnY-14" value="" style="html=1;points=[[0,0,0,0,5],[0,1,0,0,-5],[1,0,0,0,5],[1,1,0,0,-5]];perimeter=orthogonalPerimeter;outlineConnect=0;targetShapes=umlLifeline;portConstraint=eastwest;newEdgeStyle={&quot;curved&quot;:0,&quot;rounded&quot;:0};" parent="nAO25f1Qk9LxeRijGTnY-4" vertex="1">
          <mxGeometry x="45" y="200" width="10" height="30" as="geometry" />
        </mxCell>
        <mxCell id="nAO25f1Qk9LxeRijGTnY-16" value="Ничего" style="html=1;verticalAlign=bottom;endArrow=open;dashed=1;endSize=8;curved=0;rounded=0;exitX=0;exitY=1;exitDx=0;exitDy=-5;exitPerimeter=0;" parent="1" source="nAO25f1Qk9LxeRijGTnY-14" target="nAO25f1Qk9LxeRijGTnY-12" edge="1">
          <mxGeometry relative="1" as="geometry">
            <mxPoint x="160" y="260" as="targetPoint" />
            <mxPoint x="280" y="260" as="sourcePoint" />
            <mxPoint as="offset" />
          </mxGeometry>
        </mxCell>
        <mxCell id="nAO25f1Qk9LxeRijGTnY-18" value="Ничего" style="html=1;verticalAlign=bottom;endArrow=open;dashed=1;endSize=8;curved=0;rounded=0;exitX=0;exitY=1;exitDx=0;exitDy=-5;exitPerimeter=0;" parent="1" source="nAO25f1Qk9LxeRijGTnY-12" edge="1">
          <mxGeometry relative="1" as="geometry">
            <mxPoint x="155" y="290" as="sourcePoint" />
            <mxPoint x="39.5" y="285" as="targetPoint" />
          </mxGeometry>
        </mxCell>
        <mxCell id="nAO25f1Qk9LxeRijGTnY-11" value="если нет" style="shape=umlFrame;whiteSpace=wrap;html=1;pointerEvents=0;width=70;height=20;" parent="1" vertex="1">
          <mxGeometry x="30" y="240" width="280" height="70" as="geometry" />
        </mxCell>
        <mxCell id="nAO25f1Qk9LxeRijGTnY-19" value="Найти игру" style="shape=umlFrame;whiteSpace=wrap;html=1;pointerEvents=0;width=110;height=25;" parent="1" vertex="1">
          <mxGeometry x="10" y="95" width="320" height="235" as="geometry" />
        </mxCell>
        <mxCell id="nAO25f1Qk9LxeRijGTnY-27" value="Список игр" style="shape=umlFrame;whiteSpace=wrap;html=1;pointerEvents=0;width=110;height=25;" parent="1" vertex="1">
          <mxGeometry x="10" y="350" width="320" height="130" as="geometry" />
        </mxCell>
        <mxCell id="nAO25f1Qk9LxeRijGTnY-21" value="список игр" style="html=1;verticalAlign=bottom;startArrow=oval;endArrow=block;startSize=8;curved=0;rounded=0;entryX=0;entryY=0;entryDx=0;entryDy=5;" parent="1" target="nAO25f1Qk9LxeRijGTnY-20" edge="1" source="nAO25f1Qk9LxeRijGTnY-1">
          <mxGeometry relative="1" as="geometry">
            <mxPoint x="49.5" y="405" as="sourcePoint" />
          </mxGeometry>
        </mxCell>
        <mxCell id="nAO25f1Qk9LxeRijGTnY-25" value="" style="html=1;verticalAlign=bottom;endArrow=open;dashed=1;endSize=8;curved=0;rounded=0;exitX=0;exitY=1;exitDx=0;exitDy=-5;exitPerimeter=0;" parent="1" source="nAO25f1Qk9LxeRijGTnY-20" edge="1" target="nAO25f1Qk9LxeRijGTnY-1">
          <mxGeometry relative="1" as="geometry">
            <mxPoint x="140" y="470" as="sourcePoint" />
            <mxPoint x="49.5" y="465" as="targetPoint" />
          </mxGeometry>
        </mxCell>
        <mxCell id="FpiMgxBBIRzOYN06xMBi-3" value="List&amp;lt;Игра&amp;gt;" style="edgeLabel;html=1;align=center;verticalAlign=middle;resizable=0;points=[];" vertex="1" connectable="0" parent="nAO25f1Qk9LxeRijGTnY-25">
          <mxGeometry x="0.0456" y="-7" relative="1" as="geometry">
            <mxPoint y="-3" as="offset" />
          </mxGeometry>
        </mxCell>
        <mxCell id="nAO25f1Qk9LxeRijGTnY-22" value="" style="html=1;points=[[0,0,0,0,5],[0,1,0,0,-5],[1,0,0,0,5],[1,1,0,0,-5]];perimeter=orthogonalPerimeter;outlineConnect=0;targetShapes=umlLifeline;portConstraint=eastwest;newEdgeStyle={&quot;curved&quot;:0,&quot;rounded&quot;:0};" parent="1" vertex="1">
          <mxGeometry x="285" y="410" width="10" height="40" as="geometry" />
        </mxCell>
        <mxCell id="nAO25f1Qk9LxeRijGTnY-23" value="список игр" style="html=1;verticalAlign=bottom;endArrow=block;curved=0;rounded=0;entryX=0;entryY=0;entryDx=0;entryDy=5;" parent="1" source="nAO25f1Qk9LxeRijGTnY-20" target="nAO25f1Qk9LxeRijGTnY-22" edge="1">
          <mxGeometry relative="1" as="geometry">
            <mxPoint x="225" y="415" as="sourcePoint" />
            <mxPoint as="offset" />
          </mxGeometry>
        </mxCell>
        <mxCell id="nAO25f1Qk9LxeRijGTnY-24" value="List&amp;lt;Игра&amp;gt;" style="html=1;verticalAlign=bottom;endArrow=open;dashed=1;endSize=8;curved=0;rounded=0;exitX=0;exitY=1;exitDx=0;exitDy=-5;" parent="1" source="nAO25f1Qk9LxeRijGTnY-22" target="nAO25f1Qk9LxeRijGTnY-20" edge="1">
          <mxGeometry x="0.0087" relative="1" as="geometry">
            <mxPoint x="225" y="485" as="targetPoint" />
            <mxPoint as="offset" />
          </mxGeometry>
        </mxCell>
      </root>
    </mxGraphModel>
  </diagram>
</mxfile>
